<?xml version="1.0" standalone="no"?>
<!DOCTYPE svg PUBLIC "-//W3C//DTD SVG 20010904//EN"
 "http://www.w3.org/TR/2001/REC-SVG-20010904/DTD/svg10.dtd">
<svg version="1.0" xmlns="http://www.w3.org/2000/svg"
 width="1920.000000pt" height="1733.000000pt" viewBox="0 0 1920.000000 1733.000000"
 preserveAspectRatio="xMidYMid meet">

<g transform="translate(0.000000,1733.000000) scale(0.100000,-0.100000)"
fill="#000000" stroke="none">
<path d="M12405 17315 c-132 -24 -498 -157 -670 -243 -180 -90 -353 -213 -504
-357 -95 -92 -227 -243 -288 -330 -216 -311 -339 -573 -404 -860 -12 -55 -28
-106 -34 -113 -10 -11 -24 -10 -81 7 -682 199 -1592 376 -2379 461 -99 11
-218 24 -265 30 -97 12 -548 47 -784 60 -454 26 -1120 21 -1431 -10 -55 -5
-192 -17 -305 -25 -113 -9 -236 -20 -275 -26 -38 -5 -140 -19 -225 -30 -436
-56 -858 -140 -1058 -211 -110 -39 -246 -106 -337 -168 -39 -27 -84 -54 -100
-60 -40 -15 -124 -15 -217 0 -112 18 -303 8 -393 -20 -420 -134 -750 -527
-857 -1023 -19 -87 -22 -133 -22 -317 1 -251 13 -345 78 -613 121 -491 307
-918 616 -1412 58 -93 118 -192 133 -219 l27 -49 -22 -16 c-45 -31 -100 -85
-113 -111 -7 -14 -17 -54 -21 -88 -3 -34 -7 -62 -8 -63 0 0 -100 -7 -221 -14
-805 -50 -1020 -83 -1430 -220 -505 -169 -741 -334 -799 -561 -46 -180 11
-363 158 -501 176 -166 551 -337 907 -414 79 -17 122 -20 188 -16 l85 5 100
-84 c296 -249 693 -461 1376 -734 330 -132 826 -328 1010 -400 569 -220 1091
-349 1750 -430 85 -10 175 -22 200 -25 56 -7 360 -37 710 -70 571 -53 636 -63
633 -101 0 -10 -7 -48 -14 -84 -8 -40 -13 -143 -13 -270 0 -179 6 -260 29
-385 3 -16 13 -68 21 -115 62 -343 108 -531 161 -655 25 -60 50 -114 53 -118
9 -11 122 19 174 45 44 22 65 39 277 218 340 287 497 409 584 452 39 20 174
68 191 68 1 0 23 -28 48 -62 79 -111 187 -204 421 -363 55 -38 215 -155 355
-260 380 -284 453 -341 478 -368 l24 -25 -24 -8 c-12 -4 -95 -17 -183 -29
-148 -21 -187 -22 -532 -18 -396 4 -443 0 -532 -47 -70 -37 -71 -31 10 -127
153 -183 334 -366 505 -513 166 -143 316 -271 354 -302 64 -52 328 -285 546
-484 267 -243 495 -397 837 -565 147 -72 477 -209 504 -209 25 0 21 -23 -31
-162 -46 -123 -75 -226 -161 -583 -17 -69 -48 -202 -100 -425 -19 -85 -40
-173 -45 -195 -73 -293 -142 -649 -161 -835 -13 -129 -12 -600 2 -730 27 -262
19 -490 -23 -645 -11 -41 -13 -133 -3 -143 6 -6 38 24 325 303 446 434 653
624 794 729 222 164 391 257 821 451 712 322 876 419 1125 662 284 277 493
641 619 1078 35 120 37 122 253 232 211 107 240 125 487 288 198 132 253 172
459 334 241 191 430 357 607 535 739 742 1198 1695 1389 2886 43 267 50 362
50 675 0 326 -8 433 -54 694 -65 361 -118 562 -249 933 -17 49 -31 94 -31 102
0 11 17 10 88 -9 265 -69 536 -53 852 48 172 56 393 163 497 241 120 90 203
225 255 414 30 106 32 414 5 542 -48 227 -173 521 -303 716 -223 334 -560 639
-969 876 -115 67 -449 227 -590 283 -172 68 -396 140 -543 174 -120 28 -164
35 -355 61 -213 28 -999 -7 -1247 -56 -246 -48 -281 -45 -367 39 -29 28 -53
55 -53 59 0 10 93 9 149 -1 69 -14 97 1 116 60 20 59 22 185 5 249 -6 25 -23
65 -36 89 -13 24 -23 45 -22 47 2 1 28 -6 58 -16 30 -11 63 -19 72 -20 21 0
74 76 95 136 20 58 13 137 -18 202 -15 34 -77 103 -221 245 -110 109 -198 200
-197 201 2 2 27 15 54 28 60 30 110 42 235 59 52 6 96 13 98 14 1 1 -10 26
-25 56 -38 75 -163 199 -238 236 -86 43 -212 81 -323 97 -21 3 -17 15 21 66
46 61 109 99 184 110 32 5 75 16 96 24 l38 17 -23 41 c-33 60 -115 146 -173
183 -67 43 -160 78 -275 106 -52 12 -97 24 -99 26 -7 5 30 32 66 47 24 11 148
36 176 36 9 0 -10 68 -27 96 -44 73 -233 179 -397 221 -96 25 -120 27 -300 27
l-197 0 25 56 c46 106 104 190 191 278 48 49 103 101 122 117 l35 28 -57 53
c-135 125 -323 172 -553 138 -127 -19 -224 -47 -400 -118 -90 -37 -111 -42
-113 -29 -10 41 161 339 251 441 40 45 47 59 47 95 0 86 -145 235 -265 273
-72 24 -410 29 -520 9z m315 -450 c0 -3 -66 -176 -146 -383 l-146 -377 -96
-65 c-344 -233 -647 -492 -749 -641 -33 -49 -76 -129 -71 -134 2 -2 53 33 113
76 153 111 400 277 595 401 221 140 708 438 722 441 6 1 12 -3 15 -9 2 -7 -34
-41 -80 -77 -101 -79 -194 -163 -207 -187 -5 -10 59 22 143 72 161 94 561 298
585 298 7 0 12 -4 10 -8 -1 -4 -40 -82 -85 -172 -52 -104 -93 -200 -109 -261
l-27 -95 -206 -68 c-260 -86 -434 -153 -568 -222 -108 -56 -279 -162 -271
-169 2 -2 105 25 228 61 124 35 342 93 485 129 363 90 920 204 898 185 -4 -4
-107 -49 -228 -100 -317 -135 -675 -320 -675 -351 0 -5 35 4 78 20 833 307
1044 383 1048 378 3 -2 -16 -50 -41 -105 l-47 -100 -61 -12 c-102 -20 -320
-96 -424 -147 -159 -79 -320 -190 -301 -208 2 -3 85 18 184 46 370 104 749
189 787 176 6 -2 -42 -31 -108 -65 -66 -35 -141 -80 -165 -102 l-45 -39 269
89 c148 49 271 88 273 87 4 -5 -65 -193 -86 -236 -40 -77 -113 -123 -251 -156
-153 -37 -410 -114 -432 -129 -28 -20 -52 -21 287 14 310 32 355 35 355 21 0
-5 -34 -21 -75 -36 -41 -15 -75 -32 -75 -38 0 -6 28 -7 78 -3 217 20 411 36
442 36 l35 0 -75 -75 -76 -76 -104 25 c-146 34 -264 48 -410 48 -174 0 -334
-24 -309 -46 2 -2 108 -27 234 -55 358 -81 616 -149 665 -174 40 -20 137 -123
127 -133 -2 -2 -64 3 -138 12 -90 11 -170 14 -244 10 -106 -6 -113 -5 -195 25
-296 109 -406 140 -545 154 -60 5 -59 5 60 -38 407 -149 701 -306 930 -499 85
-71 165 -148 154 -148 -3 0 -72 23 -154 50 -82 28 -151 50 -153 50 -2 0 -2 -5
0 -11 2 -6 81 -55 177 -108 95 -53 173 -100 174 -104 2 -9 -226 -117 -245
-117 -5 0 -51 29 -101 64 -327 226 -893 564 -1340 801 -71 37 -125 71 -120 75
4 4 61 24 127 44 88 28 116 40 107 49 -8 8 -54 5 -179 -12 -189 -27 -204 -25
-287 34 l-48 34 86 43 c48 23 87 46 87 50 0 9 -20 5 -138 -28 -114 -33 -144
-31 -229 13 -40 20 -73 40 -73 44 0 4 25 25 55 48 30 23 55 44 55 46 0 2 -30
-10 -66 -27 -91 -42 -149 -37 -265 24 -46 24 -99 49 -116 56 -18 6 -33 15 -33
19 1 4 30 26 66 48 36 22 79 55 97 74 l32 33 -35 -7 c-33 -7 -105 -31 -210
-70 -62 -23 -128 -15 -222 30 -43 19 -78 39 -77 43 0 4 110 104 245 222 134
118 244 218 244 222 0 4 -5 8 -10 8 -35 0 -324 -177 -507 -311 -66 -49 -124
-89 -127 -89 -8 0 -359 130 -363 134 -9 8 252 283 647 681 500 504 576 583
568 591 -7 6 -256 -187 -513 -397 -307 -251 -583 -510 -790 -742 -70 -78 -88
-82 -195 -43 -79 30 -79 31 -11 171 172 351 586 793 1001 1070 107 72 323 186
380 201 31 8 44 21 -170 -167 -277 -243 -415 -388 -503 -529 -26 -42 -21 -39
83 50 182 156 442 361 611 483 224 160 509 323 509 292z m-6110 -1260 c118 -8
321 -22 450 -30 1872 -124 3409 -502 4975 -1225 1105 -509 2226 -1226 3065
-1959 198 -173 588 -563 754 -753 459 -527 834 -1072 1075 -1563 223 -453 355
-872 437 -1388 31 -197 44 -584 25 -787 -70 -768 -331 -1616 -670 -2179 -202
-335 -406 -575 -951 -1121 -442 -442 -774 -729 -1145 -987 -175 -122 -205
-136 -285 -137 -62 0 -140 18 -140 32 1 4 68 47 150 95 439 259 808 600 1064
984 61 92 79 130 57 121 -4 -1 -66 -70 -136 -153 -350 -409 -735 -713 -1198
-946 -126 -63 -150 -68 -199 -43 l-31 16 229 117 c384 195 630 376 960 705
279 279 444 477 608 728 166 257 293 503 352 685 20 63 35 115 33 118 -3 2
-33 -51 -69 -118 -203 -381 -381 -641 -632 -922 -318 -357 -730 -723 -1058
-942 -189 -126 -536 -312 -588 -315 -19 -1 -264 149 -350 215 -68 53 -192 182
-192 200 0 8 98 123 218 257 182 204 217 239 220 219 8 -75 5 -76 131 64 129
144 192 206 291 288 77 64 209 153 216 146 9 -9 -123 -255 -192 -359 -37 -55
-100 -141 -141 -189 -40 -49 -70 -89 -65 -89 15 0 127 79 190 133 93 82 135
136 303 392 87 132 191 290 233 350 72 106 239 317 255 323 26 9 -44 -263
-129 -507 -33 -96 -59 -179 -57 -185 5 -16 102 137 166 264 119 234 181 434
236 765 19 115 39 213 44 218 11 11 42 -84 63 -185 16 -83 14 -369 -4 -475
-13 -73 -13 -81 0 -70 20 16 75 137 101 221 65 210 69 492 10 725 -42 167
-147 322 -282 413 -133 90 -378 186 -582 227 -194 39 -504 53 -1565 71 -1128
20 -1284 30 -1723 116 -225 44 -328 74 -430 125 -132 66 -215 127 -337 249
-125 124 -162 181 -199 305 -34 116 -51 127 -321 228 -302 112 -712 277 -785
315 -49 26 -103 69 -177 141 -111 106 -131 116 -144 67 -9 -37 56 -153 131
-234 105 -113 293 -208 570 -287 130 -37 213 -56 461 -106 83 -16 102 -43 174
-242 169 -472 201 -745 113 -967 -67 -167 -206 -440 -226 -440 -12 0 -349 297
-563 496 -94 87 -296 275 -450 418 -325 301 -356 332 -433 447 -55 82 -201
356 -201 378 0 6 18 14 40 17 22 4 40 10 40 13 0 25 -193 179 -401 319 -131
89 -221 171 -289 262 -54 73 -75 90 -109 90 -18 0 -21 -6 -21 -39 0 -53 22
-110 68 -178 22 -32 47 -73 56 -90 16 -32 16 -33 -6 -37 -191 -40 -1355 -66
-1688 -38 -558 48 -1022 136 -1540 294 -146 44 -551 186 -922 323 -135 50
-193 81 -128 71 19 -4 96 -26 170 -50 668 -218 821 -266 860 -271 l45 -6 -45
20 c-25 11 -223 94 -440 185 -668 277 -1085 464 -1487 667 -247 125 -463 241
-463 249 0 3 52 23 116 44 127 43 332 140 489 231 55 32 174 93 265 135 91 42
179 84 195 94 30 17 29 17 -65 12 -163 -9 -277 -51 -603 -224 -293 -155 -390
-190 -555 -198 -93 -5 -132 -15 -132 -35 0 -5 6 -11 13 -13 6 -2 40 -12 75
-22 46 -13 77 -30 118 -66 145 -126 510 -339 844 -493 172 -78 271 -128 266
-132 -10 -10 -313 100 -441 160 -191 89 -780 388 -949 480 -114 63 -127 72
-111 83 10 7 23 15 29 17 21 8 -2 18 -89 42 -48 14 -89 26 -91 28 -2 2 69 11
159 21 203 22 415 52 498 70 60 13 45 14 -241 15 -170 1 -300 5 -295 10 6 4
127 31 270 59 143 28 300 62 348 77 105 30 250 85 244 92 -3 2 -42 -3 -88 -12
-88 -16 -516 -59 -966 -97 -237 -19 -286 -21 -385 -11 -275 29 -448 116 -522
265 -30 61 -34 131 -10 168 59 89 202 203 299 240 37 14 31 -1 -25 -68 -56
-67 -89 -133 -90 -176 0 -29 2 -27 75 43 41 40 79 70 84 67 5 -3 -2 -40 -15
-83 -13 -43 -24 -93 -24 -111 0 -99 101 -203 232 -238 73 -19 421 -18 619 1
571 57 1301 246 1815 470 97 42 144 55 144 38 0 -5 -61 -42 -135 -83 -124 -69
-169 -108 -112 -96 12 3 49 10 82 17 180 34 398 125 733 306 371 201 710 360
726 342 2 -2 -7 -47 -20 -99 -13 -52 -23 -97 -24 -100 -1 -15 63 -40 99 -40
96 0 369 79 551 160 159 70 247 125 336 212 44 43 83 78 86 78 3 0 14 -29 23
-65 10 -36 21 -63 24 -60 8 9 2 128 -14 259 -8 66 -13 121 -11 124 3 2 19 -19
37 -47 17 -29 33 -51 35 -49 8 9 -20 96 -76 233 -78 191 -76 185 -56 185 28 0
17 34 -41 129 -122 195 -271 372 -443 528 -63 56 -120 103 -127 103 -19 0 -16
-41 6 -64 34 -39 274 -370 338 -467 76 -116 120 -210 179 -383 49 -144 52
-172 24 -235 -29 -63 -187 -216 -298 -289 -154 -101 -521 -276 -539 -258 -4 4
25 138 64 299 l71 292 -9 240 c-9 252 -23 350 -63 458 -14 35 -34 115 -46 177
-24 127 -60 247 -91 300 -11 19 -18 26 -15 15 5 -22 74 -399 78 -430 2 -11 -1
-22 -6 -25 -5 -3 -22 33 -37 80 -25 78 -27 82 -28 45 0 -22 8 -150 18 -285 26
-329 32 -483 23 -555 -7 -59 -7 -58 -30 105 -64 454 -135 736 -277 1095 -223
566 -488 1020 -818 1403 -252 291 -519 444 -777 445 -159 0 -293 -47 -381
-135 -46 -46 -65 -80 -157 -278 -92 -199 -112 -412 -67 -715 15 -102 106 -558
148 -743 33 -142 51 -157 41 -33 -5 66 -4 92 4 87 18 -11 94 -218 103 -281 4
-33 13 -103 18 -156 8 -67 26 -144 62 -255 61 -189 87 -244 185 -387 41 -59
74 -112 74 -117 0 -9 -50 -18 -129 -22 l-43 -3 -155 330 c-374 801 -482 1120
-544 1610 -18 141 -15 442 5 560 41 243 139 448 309 646 114 133 226 205 392
251 68 18 107 22 260 22 168 0 185 -1 257 -26 68 -23 79 -24 98 -11 29 20 25
55 -10 88 -16 16 -30 32 -30 36 0 8 116 50 200 73 206 55 392 83 872 131 477
47 828 71 1268 89 162 7 616 -4 830 -19z m-4422 -677 c7 -7 12 -20 12 -29 0
-19 -157 -219 -172 -219 -17 0 -1 118 23 167 36 74 104 114 137 81z m-158
-347 c0 -5 -8 -19 -18 -31 -16 -20 -19 -21 -31 -6 -11 13 -11 22 -3 42 10 21
15 23 32 14 11 -6 20 -15 20 -19z m12415 -421 c255 -62 249 -60 238 -71 -10
-10 -153 -99 -159 -99 -15 0 -320 205 -322 217 -3 10 1 13 15 9 10 -3 113 -28
228 -56z m-10204 -545 c11 -11 25 -28 30 -37 13 -23 -27 -43 -104 -52 -134
-15 -205 -82 -251 -236 -58 -196 -36 -487 84 -1095 33 -165 62 -312 65 -327 7
-44 -22 -35 -34 10 -25 93 -105 441 -131 569 -87 425 -103 799 -40 965 35 95
117 179 207 213 53 20 146 15 174 -10z m-1074 -577 c67 -311 78 -346 117 -383
19 -18 38 -52 49 -86 9 -31 24 -62 32 -69 13 -11 15 0 16 86 1 55 3 133 5 174
2 41 3 83 4 92 0 9 10 29 23 45 19 22 27 54 41 158 10 72 21 133 25 138 4 4
19 -75 34 -175 28 -194 46 -270 62 -269 9 0 32 179 50 391 6 62 10 79 16 65
10 -23 219 -1022 219 -1045 0 -8 -26 43 -58 114 -31 71 -63 131 -71 134 -10 3
-12 -2 -8 -19 12 -50 19 -149 11 -149 -5 0 -34 56 -64 125 -30 68 -61 125 -67
125 -7 0 -13 -3 -13 -8 0 -9 47 -282 56 -324 12 -58 -16 -24 -82 97 -37 69
-71 125 -75 125 -12 0 -12 -5 8 -87 l17 -73 -24 -25 c-13 -14 -26 -25 -30 -25
-3 0 -64 92 -136 205 -71 112 -132 204 -136 205 -4 0 -10 -16 -14 -36 -4 -25
3 -80 26 -178 51 -231 41 -233 -70 -11 l-95 190 -3 -49 c-2 -31 8 -91 27 -167
17 -65 31 -122 31 -126 0 -15 -85 75 -142 151 -108 145 -188 338 -233 561 -23
116 -43 285 -32 275 3 -3 28 -97 56 -209 28 -113 54 -207 58 -210 3 -4 3 8 -1
24 -12 54 -18 402 -7 385 6 -8 11 -29 11 -46 0 -88 99 -440 146 -524 13 -23
14 -22 8 22 -3 27 0 77 7 112 10 50 10 80 1 133 -17 103 -26 260 -14 248 5 -5
29 -77 52 -160 23 -82 44 -152 46 -154 2 -2 13 16 24 40 17 39 20 66 20 230 0
171 3 199 19 199 4 0 30 -109 58 -242z m12364 -44 c52 -9 98 -19 102 -23 4 -5
-60 -14 -142 -21 -153 -13 -346 -9 -364 9 -8 8 47 30 108 44 47 11 209 6 296
-9z m750 -64 c607 -130 1038 -298 1424 -555 206 -137 325 -234 491 -400 194
-194 366 -429 435 -597 30 -72 73 -215 61 -204 -3 4 -34 60 -67 124 -56 110
-62 117 -92 120 -18 2 -33 1 -33 -3 0 -3 18 -42 41 -86 127 -254 113 -572 -31
-660 -25 -15 -54 -35 -65 -44 -19 -15 -17 -16 29 -11 56 7 124 43 155 83 12
14 24 23 27 20 31 -31 -98 -169 -214 -230 -209 -110 -443 -143 -908 -129 -197
7 -246 11 -266 24 -15 10 -60 81 -108 169 -215 395 -507 827 -833 1229 -47 58
-84 107 -82 109 11 10 380 -207 625 -367 303 -198 514 -361 720 -556 52 -50
117 -111 143 -136 l48 -45 -17 40 c-48 118 -232 338 -453 542 -69 64 -232 205
-362 314 -131 110 -241 204 -244 209 -7 11 49 -9 213 -75 129 -52 383 -178
532 -264 292 -170 489 -281 496 -281 16 0 -84 94 -206 194 -436 358 -938 637
-1472 817 -122 41 -185 56 -321 75 l-170 24 -135 128 c-95 89 -130 128 -118
130 25 5 242 -26 381 -54 486 -99 903 -264 1420 -561 468 -270 755 -481 1004
-738 126 -130 122 -115 -19 73 -156 210 -418 461 -680 653 -153 113 -408 275
-657 418 -40 23 -73 43 -73 45 0 7 106 -27 240 -76 249 -92 544 -235 800 -386
47 -28 87 -48 89 -46 9 9 -105 116 -194 183 -171 130 -432 290 -650 399 -329
164 -739 317 -1014 377 -145 32 -147 33 -84 34 29 1 116 -13 194 -29z m-11454
-1342 c7 -6 13 -21 13 -33 0 -26 -10 -30 -125 -40 -175 -17 -387 -100 -532
-208 -110 -83 -569 -280 -1144 -492 -255 -95 -274 -101 -283 -86 -7 10 208
209 310 287 54 41 394 217 403 208 2 -2 -20 -29 -49 -61 -58 -64 -130 -168
-130 -190 0 -7 55 33 123 90 203 171 375 286 617 414 219 116 319 130 632 87
44 -6 48 -5 60 21 11 25 15 26 52 21 22 -4 46 -12 53 -18z m-1937 -348 c11 -6
20 -14 20 -19 0 -4 -89 -13 -197 -20 -249 -15 -610 -53 -773 -81 -194 -33
-312 -64 -561 -145 -127 -42 -233 -74 -236 -71 -10 10 78 59 176 97 300 117
535 167 1016 214 143 13 303 29 355 34 104 10 170 7 200 -9z m15827 -313 c-2
-23 -3 -1 -3 48 0 50 1 68 3 42 2 -26 2 -67 0 -90z m-16392 106 c57 -6 64 -8
40 -14 -16 -4 -59 -7 -95 -8 -146 -2 -423 -46 -640 -101 -63 -16 -126 -32
-140 -35 -46 -10 41 26 160 67 232 78 474 111 675 91z m-160 -142 c22 -5 -26
-16 -175 -40 -113 -18 -216 -35 -230 -37 l-25 -5 26 15 c84 48 316 87 404 67z
m-1075 -22 c-40 -32 -58 -40 -65 -29 -3 5 11 18 32 29 49 26 65 26 33 0z
m6407 -2866 c-4 -98 -6 -194 -5 -213 l3 -35 25 40 25 40 30 -208 c42 -290 56
-280 70 48 11 257 16 315 31 315 11 0 14 -22 14 -105 0 -62 4 -105 10 -105 5
0 18 16 28 36 l19 37 22 -109 c27 -130 28 -134 39 -134 11 0 16 33 39 273 9
103 20 187 24 187 3 0 21 -51 38 -112 34 -116 99 -269 121 -283 9 -6 11 0 6
21 -3 16 -20 116 -37 222 -32 201 -32 269 0 176 9 -28 31 -69 49 -92 18 -22
42 -67 52 -99 28 -82 93 -223 102 -223 12 0 10 11 -18 147 -14 69 -23 128 -20
131 3 3 43 -72 89 -166 45 -95 85 -172 89 -172 4 0 10 9 13 20 3 11 10 20 15
20 7 0 130 -184 130 -195 0 -12 -88 -46 -220 -85 -287 -84 -330 -111 -584
-371 -109 -112 -188 -185 -190 -177 -5 13 -30 236 -41 353 -14 160 -25 696
-16 782 10 92 38 213 50 213 3 0 3 -80 -2 -177z m3050 -899 c242 -162 448
-265 708 -352 262 -88 613 -151 1035 -187 102 -8 235 -19 295 -25 61 -5 184
-12 275 -15 91 -3 300 -13 465 -21 197 -9 377 -12 525 -8 251 7 333 -1 555
-57 238 -59 267 -88 261 -261 -7 -180 -65 -340 -185 -516 -69 -100 -217 -268
-340 -385 l-81 -77 -76 62 c-42 35 -118 97 -168 139 -338 279 -545 423 -806
557 -296 152 -578 240 -940 294 -138 20 -193 23 -500 23 -237 0 -375 -4 -440
-13 -352 -51 -441 -68 -654 -126 -148 -41 -335 -81 -342 -73 -3 2 21 47 52 98
69 115 162 300 197 394 62 166 94 358 83 508 -3 50 -2 87 3 87 5 0 40 -21 78
-46z m1588 -1424 c309 -23 603 -81 896 -176 371 -121 680 -272 873 -427 l88
-72 -48 -43 c-79 -70 -188 -138 -256 -161 -77 -26 -173 -73 -253 -126 -128
-84 -296 -279 -380 -442 -36 -68 -31 -93 44 -215 115 -190 316 -432 457 -552
156 -133 292 -179 592 -198 103 -6 188 -13 190 -14 11 -8 -111 -195 -197 -304
-76 -95 -244 -263 -336 -335 -177 -138 -322 -219 -603 -334 -402 -165 -853
-357 -927 -393 -326 -163 -559 -380 -727 -678 -29 -51 -58 -95 -64 -97 -15 -5
-27 399 -28 912 -1 416 3 451 100 845 130 531 151 577 413 897 35 43 75 102
89 131 22 49 23 54 8 77 -20 31 -27 34 -178 89 -367 133 -571 238 -1093 561
-60 37 -159 95 -220 128 -241 131 -399 252 -612 469 -157 159 -313 329 -313
341 0 4 51 4 113 1 132 -7 627 10 877 31 96 8 297 29 445 46 149 17 322 34
385 38 173 12 507 12 665 1z m1077 -1471 c-40 -112 -43 -119 -51 -119 -3 0
-19 19 -35 42 l-30 41 70 63 c38 34 70 61 72 59 2 -2 -10 -41 -26 -86z"/>
<path d="M3610 15108 c0 -19 49 -77 160 -187 269 -266 480 -588 865 -1313 34
-65 50 -74 42 -24 -8 49 -155 376 -243 539 -205 381 -468 742 -663 912 -78 69
-102 85 -128 85 -18 0 -33 -5 -33 -12z"/>
<path d="M5520 15055 c-174 -37 -322 -136 -447 -297 -74 -96 -106 -178 -111
-280 -8 -166 58 -299 233 -466 148 -142 290 -203 475 -203 176 -1 319 61 455
196 124 123 165 220 165 390 0 114 -19 203 -63 297 -84 180 -239 318 -408 363
-67 18 -213 18 -299 0z m238 -364 c97 -49 124 -148 75 -274 -41 -106 -112
-153 -217 -144 -148 13 -244 73 -253 157 -7 69 8 97 56 104 23 3 59 9 81 12
55 8 98 40 144 107 44 63 57 67 114 38z"/>
<path d="M6303 14743 c2 -10 17 -58 32 -108 24 -76 28 -108 28 -210 1 -138
-20 -228 -80 -351 -71 -147 -222 -286 -355 -328 -117 -36 -178 -38 -385 -10
-52 6 -53 6 -53 -19 0 -33 26 -51 106 -71 290 -74 618 101 765 409 55 114 72
191 72 315 0 141 -33 265 -96 357 -24 36 -42 44 -34 16z"/>
<path d="M10235 14658 c-45 -25 -46 -55 -4 -103 44 -50 95 -77 231 -124 407
-139 1335 -564 1918 -879 1264 -680 2191 -1402 3021 -2352 486 -557 763 -909
1058 -1347 87 -130 121 -172 121 -148 0 16 -58 130 -130 255 -638 1112 -1420
2020 -2390 2774 -807 628 -1816 1197 -2960 1671 -536 222 -789 296 -865 253z"/>
<path d="M9257 14540 c-33 -26 -56 -70 -87 -165 -13 -38 -31 -87 -41 -107 -11
-21 -19 -51 -19 -68 0 -17 32 -105 70 -197 87 -204 110 -284 119 -421 9 -125
-2 -474 -19 -582 -14 -94 -56 -256 -86 -338 -29 -74 -30 -89 -8 -71 57 47 148
224 213 413 23 66 44 122 47 125 4 4 4 -102 1 -234 -6 -272 -27 -435 -82 -649
-98 -382 -257 -699 -517 -1034 -89 -114 -346 -379 -466 -481 -81 -69 -80 -76
16 -69 54 5 169 44 295 101 31 15 57 23 57 19 0 -5 -37 -35 -82 -67 -101 -71
-92 -64 -87 -70 9 -8 134 23 204 51 38 15 131 70 208 121 147 99 149 99 106 7
-27 -57 -56 -81 -119 -98 -30 -8 -115 -37 -187 -65 -158 -60 -295 -103 -418
-131 -106 -24 -145 -39 -145 -53 0 -19 312 -1 475 27 83 15 158 29 168 32 9 3
17 2 16 -3 0 -11 -154 -137 -171 -141 -8 -1 -196 24 -418 58 -222 33 -408 59
-414 57 -12 -4 71 -64 144 -105 67 -38 233 -93 353 -118 48 -10 86 -22 84 -28
-2 -5 -24 -21 -49 -35 l-46 -26 -59 17 c-32 9 -157 45 -278 81 -121 35 -222
62 -225 59 -3 -2 19 -26 49 -53 36 -34 93 -69 179 -110 79 -38 122 -63 115
-70 -21 -21 -125 -49 -185 -49 -51 0 -74 6 -118 30 -158 85 -260 125 -260 102
0 -6 43 -50 95 -98 52 -48 95 -91 95 -95 0 -14 -72 -31 -107 -26 -21 4 -93 44
-173 97 -76 49 -140 90 -143 90 -20 0 27 -74 86 -137 l70 -73 -38 -15 c-45
-19 -45 -19 -247 126 -105 75 -140 96 -144 84 -4 -9 22 -47 72 -102 118 -133
118 -132 111 -139 -3 -3 -24 -10 -47 -15 -56 -13 -79 -1 -232 126 -70 58 -129
105 -132 105 -19 0 5 -38 85 -132 50 -59 88 -112 84 -118 -9 -15 -73 21 -219
122 -96 67 -131 87 -137 77 -4 -7 -4 -18 0 -24 98 -130 131 -175 131 -179 0
-3 -18 -6 -40 -6 -31 0 -48 7 -77 33 -32 28 -176 146 -222 181 -28 21 -3 -55
44 -133 25 -41 45 -81 45 -87 0 -7 -75 28 -166 78 -102 55 -170 86 -175 81 -6
-6 11 -36 45 -78 30 -38 53 -72 50 -77 -12 -19 -75 -5 -171 38 -57 26 -107 44
-110 40 -4 -3 3 -24 15 -45 l22 -39 -27 -6 c-16 -3 -47 -8 -70 -11 -24 -4 -43
-11 -43 -15 0 -5 13 -18 29 -30 27 -18 69 -24 403 -51 635 -51 924 -50 1282 6
427 67 887 224 1143 390 241 157 432 369 548 610 82 170 120 336 130 570 6
160 -13 108 179 478 65 125 122 227 128 227 6 0 7 -8 3 -17 -71 -180 -165
-436 -162 -440 18 -17 163 244 252 451 92 217 197 551 241 768 25 119 28 156
28 343 1 203 0 211 -22 248 -27 43 -32 44 -57 17 -16 -17 -20 -46 -27 -163 -4
-78 -18 -198 -29 -267 -24 -141 -44 -193 -34 -90 51 582 -44 1073 -274 1417
-78 117 -166 207 -227 234 -26 12 -75 24 -108 26 -52 4 -65 2 -89 -17z"/>
<path d="M4844 14474 c-18 -95 19 -263 83 -387 41 -77 148 -198 193 -217 32
-13 86 -7 114 13 15 11 9 20 -67 89 -129 118 -176 200 -228 396 -20 77 -57
142 -79 142 -5 0 -12 -16 -16 -36z"/>
<path d="M8707 14100 c-39 -31 -41 -70 -19 -267 32 -271 33 -295 33 -519 1
-234 -15 -379 -62 -597 -130 -598 -406 -1219 -783 -1766 -59 -85 -104 -156
-101 -159 3 -3 16 0 29 8 30 16 273 260 353 355 560 660 885 1569 824 2298
-22 264 -62 437 -132 568 -51 95 -92 118 -142 79z"/>
<path d="M8400 13995 c-29 -35 -51 -162 -61 -340 -34 -668 -141 -1093 -439
-1750 -139 -308 -230 -470 -359 -645 -48 -65 -59 -85 -50 -96 13 -16 59 14
176 116 303 267 583 717 755 1215 188 540 242 1183 120 1421 -39 76 -111 116
-142 79z"/>
<path d="M8014 13850 c-32 -12 -52 -76 -74 -228 -78 -529 -170 -952 -295
-1341 -39 -123 -52 -178 -45 -185 15 -14 34 11 119 154 148 251 209 382 285
618 82 255 128 526 129 758 0 128 -2 145 -21 176 -17 27 -62 61 -75 57 -1 0
-11 -4 -23 -9z"/>
<path d="M7664 13719 c-37 -13 -50 -62 -99 -374 -20 -126 -52 -324 -71 -438
-19 -115 -32 -213 -28 -218 14 -23 33 -1 76 95 56 122 258 717 258 760 0 46
-21 102 -51 139 -31 38 -54 48 -85 36z"/>
<path d="M11118 12522 c-22 -4 -22 -12 -3 -82 37 -140 7 -258 -83 -324 -49
-35 -188 -107 -283 -146 -30 -12 -66 -30 -79 -40 l-23 -18 48 -63 c73 -97 105
-172 105 -245 0 -83 -28 -134 -150 -274 -55 -63 -100 -118 -100 -122 0 -16 80
-29 116 -19 172 48 290 249 255 438 -13 73 -36 124 -87 196 -19 26 -34 49 -34
51 0 2 34 6 75 9 96 7 168 40 240 108 93 88 145 226 131 343 -9 66 -63 177
-91 186 -11 3 -28 5 -37 2z"/>
<path d="M5335 12428 c4 -18 35 -94 70 -168 89 -191 130 -294 186 -460 l48
-145 0 82 c2 211 -108 522 -235 661 -30 34 -60 62 -66 62 -6 0 -7 -13 -3 -32z"/>
<path d="M11022 12347 c-23 -24 -105 -207 -97 -215 2 -2 25 8 50 22 31 18 55
44 75 79 31 55 37 86 20 118 -14 25 -22 24 -48 -4z"/>
<path d="M5310 12270 c0 -34 38 -151 101 -307 38 -95 72 -187 76 -203 3 -17
10 -33 15 -37 13 -7 2 118 -19 212 -20 90 -65 203 -107 268 -36 58 -66 87 -66
67z"/>
<path d="M5214 12145 c-3 -20 -2 -52 4 -73 5 -20 22 -82 37 -137 14 -55 35
-113 46 -130 l19 -30 -6 95 c-3 52 -10 120 -15 150 -10 57 -54 160 -69 160 -5
0 -12 -16 -16 -35z"/>
<path d="M11250 11893 c-1 -77 -1 -78 -17 -51 -9 15 -27 32 -40 39 -19 10 -26
9 -43 -6 -37 -34 -76 -245 -45 -245 20 0 72 47 106 97 17 24 33 42 36 39 16
-15 -36 -104 -107 -183 -43 -48 -76 -91 -73 -95 2 -5 23 -8 46 -8 122 1 233
126 245 276 7 97 -41 214 -89 214 -17 0 -19 -8 -19 -77z"/>
<path d="M14047 11796 c-49 -56 -55 -66 -37 -66 55 0 106 57 98 110 -3 19 -11
13 -61 -44z"/>
<path d="M14195 11802 c-11 -2 -41 -24 -68 -48 -52 -47 -111 -72 -241 -105
l-84 -21 0 -121 c1 -103 -3 -134 -24 -202 -14 -44 -21 -82 -16 -84 18 -6 69
22 98 55 34 39 47 81 56 180 l7 72 56 4 c66 5 137 36 182 81 76 77 100 204 34
189z"/>
<path d="M10647 11538 c-29 -91 -43 -146 -37 -152 14 -14 87 59 116 117 13 26
27 67 30 91 5 36 3 47 -15 65 -11 11 -27 21 -35 21 -9 0 -30 -50 -59 -142z"/>
<path d="M7015 11470 c-82 -21 -253 -71 -380 -110 -302 -94 -465 -133 -703
-169 -249 -38 -418 -53 -504 -45 -80 8 -125 0 -109 -20 6 -7 34 -26 63 -42 52
-29 55 -29 198 -27 506 8 804 71 1273 272 157 67 205 83 193 62 -3 -5 -120
-68 -258 -141 -139 -73 -255 -134 -257 -136 -1 -1 0 -7 3 -13 12 -18 360 133
497 215 31 19 59 34 62 34 10 0 -5 -75 -19 -98 -9 -14 -93 -60 -219 -122 -176
-86 -230 -119 -197 -120 4 0 91 30 195 66 103 37 190 65 193 61 10 -10 -7 -86
-24 -107 -10 -12 -86 -45 -181 -80 -91 -33 -167 -62 -169 -65 -16 -16 22 -12
162 18 86 19 159 30 161 26 3 -4 0 -31 -6 -59 -9 -44 -16 -54 -43 -65 -17 -7
-164 -25 -326 -39 -162 -15 -304 -31 -315 -36 -12 -5 112 -9 308 -9 l328 -1
-6 -22 c-14 -51 -28 -77 -43 -84 -29 -13 -874 -17 -1142 -5 -274 13 -436 30
-568 61 -101 24 -148 26 -156 5 -8 -22 24 -39 144 -79 119 -39 204 -58 370
-81 233 -32 385 -57 393 -64 12 -12 -56 -67 -124 -101 -186 -94 -539 -117
-1279 -84 -761 34 -1015 36 -1175 11 -185 -29 -407 -106 -384 -133 15 -19 41
-22 289 -39 301 -21 694 -51 975 -75 504 -43 924 -50 1180 -20 382 44 599 150
694 339 21 43 40 83 42 90 3 7 134 28 364 57 448 57 446 56 504 177 71 149
125 353 156 590 20 154 19 248 -4 246 -3 0 -73 -18 -156 -39z"/>
<path d="M14218 11458 l-37 -43 6 33 c3 17 1 32 -4 32 -10 0 -83 -72 -83 -82
0 -4 16 -4 36 -1 34 6 36 5 25 -15 -22 -41 -103 -82 -162 -82 -39 0 -36 -14 5
-34 43 -20 108 -21 151 0 49 23 122 105 130 145 6 34 -8 89 -23 89 -4 0 -24
-19 -44 -42z"/>
<path d="M13723 11425 c-6 -25 -8 -45 -5 -45 11 0 31 36 32 57 0 40 -17 33
-27 -12z"/>
<path d="M11750 11373 c-43 -22 -49 -51 -17 -81 19 -18 48 -27 123 -38 314
-46 517 -98 788 -201 288 -109 537 -218 806 -353 277 -140 453 -241 685 -395
376 -249 581 -420 976 -814 522 -522 743 -792 1049 -1283 74 -119 136 -215
138 -213 1 1 -11 37 -27 79 -161 404 -578 994 -1068 1511 -580 612 -1163 1032
-1920 1385 -606 282 -977 393 -1394 416 -89 5 -109 3 -139 -13z"/>
<path d="M4620 11132 c-99 -45 -433 -242 -408 -242 15 0 187 64 271 101 128
57 249 130 242 147 -3 7 -5 18 -5 23 0 14 -9 11 -100 -29z"/>
<path d="M5925 11019 c-108 -19 -405 -49 -485 -50 l-85 -1 35 -15 c83 -37 299
-26 475 23 140 40 171 62 60 43z"/>
<path d="M5580 10860 c-58 -4 -129 -8 -157 -9 -38 -1 -53 -5 -53 -15 0 -20 99
-28 213 -16 95 10 237 37 237 46 0 5 -108 2 -240 -6z"/>
<path d="M3845 10737 c-117 -51 -360 -175 -400 -204 -46 -34 65 -3 260 72 284
109 294 114 301 141 7 28 -2 44 -24 44 -9 -1 -71 -24 -137 -53z"/>
<path d="M12220 10734 c-74 -8 -277 -28 -450 -45 -173 -16 -441 -46 -595 -65
-598 -74 -697 -84 -905 -99 -118 -8 -312 -22 -430 -31 -124 -10 -269 -14 -345
-12 -121 5 -185 -3 -185 -22 0 -15 74 -73 119 -94 44 -20 60 -21 336 -19 519
2 770 28 1845 189 280 42 482 78 569 104 19 5 37 8 39 6 2 -3 -10 -25 -28 -51
-80 -116 -127 -260 -175 -530 -57 -320 -147 -513 -321 -688 -129 -130 -337
-252 -510 -298 -195 -52 -556 -10 -849 100 -56 22 -196 84 -311 139 -279 133
-363 159 -593 182 -318 32 -780 -65 -1053 -221 -83 -48 -109 -71 -95 -86 3 -3
79 13 169 35 235 59 314 67 688 67 276 0 338 -3 410 -18 143 -31 286 -84 490
-181 382 -184 589 -239 895 -239 232 0 410 40 583 133 209 112 404 316 517
540 77 153 98 239 155 640 39 278 76 373 171 447 30 23 74 59 98 80 42 37 43
38 20 44 -35 10 -107 8 -259 -7z"/>
<path d="M5350 10717 c31 -14 280 -14 335 1 31 8 -3 10 -160 10 -157 1 -195
-2 -175 -11z"/>
<path d="M5243 10478 c37 -12 67 -25 67 -29 0 -10 -39 -19 -82 -19 -64 0 -42
-17 47 -35 47 -10 83 -20 81 -22 -2 -2 -51 -8 -107 -12 -84 -7 -50 -8 179 -10
305 -1 312 0 361 53 28 30 30 29 -79 50 -90 17 -250 33 -415 40 l-120 5 68
-21z"/>
<path d="M11720 10439 c-312 -36 -638 -78 -945 -120 -599 -82 -642 -88 -860
-113 -115 -14 -311 -35 -435 -46 -124 -11 -233 -23 -244 -26 -56 -18 39 -24
324 -22 639 3 919 29 1750 163 403 65 510 88 527 111 17 24 16 54 -1 54 -8 0
-20 2 -28 4 -7 2 -47 -1 -88 -5z"/>
<path d="M11430 10184 c-338 -31 -1143 -138 -1785 -237 -113 -17 -97 -32 33
-30 268 6 1455 114 1637 149 280 54 344 78 328 119 -6 17 -14 17 -213 -1z"/>
<path d="M2671 9976 l-24 -13 47 -51 c27 -28 101 -87 165 -130 92 -62 155 -94
301 -154 458 -189 1170 -430 1655 -561 320 -87 690 -168 820 -181 l60 -6 -59
25 c-32 14 -127 47 -210 74 -276 91 -1169 399 -1776 613 -422 148 -644 243
-817 349 -74 46 -125 57 -162 35z"/>
<path d="M4622 9928 c-7 -7 -8 -17 -2 -29 21 -39 280 -189 492 -285 378 -171
921 -284 1707 -354 212 -19 257 -19 314 -4 31 9 18 24 -20 24 -52 0 -1355 262
-1518 304 -255 68 -351 104 -677 252 -219 101 -271 117 -296 92z"/>
<path d="M10181 9899 c-189 -10 -464 -38 -474 -48 -13 -13 59 -19 601 -51 729
-43 841 -46 997 -26 71 9 135 22 143 28 7 6 12 23 10 37 l-3 26 -178 12 c-479
32 -801 38 -1096 22z"/>
<path d="M3824 9775 c-18 -14 -18 -16 21 -50 74 -66 397 -220 650 -311 612
-221 1493 -438 2084 -514 316 -41 253 -10 -254 124 -1076 284 -1643 460 -2226
692 -190 75 -239 86 -275 59z"/>
<path d="M9775 9729 c-4 -6 -5 -13 -2 -15 5 -5 633 -112 972 -165 211 -32 278
-33 348 -4 69 28 42 85 -44 92 -30 2 -126 11 -214 19 -138 12 -1028 84 -1047
84 -4 0 -10 -5 -13 -11z"/>
<path d="M13828 9358 c-9 -7 -28 -38 -42 -69 -15 -31 -46 -75 -70 -97 -76 -70
-244 -146 -415 -187 -58 -14 -112 -28 -119 -30 -9 -3 11 -29 52 -69 155 -153
218 -318 220 -578 l1 -137 27 26 c50 48 73 117 73 223 0 112 -22 194 -92 342
-26 54 -44 100 -42 103 3 2 45 16 94 30 225 65 358 189 372 346 9 97 -13 133
-59 97z"/>
<path d="M13556 9267 c-55 -33 -94 -63 -87 -65 34 -11 120 20 165 59 44 39 59
70 34 68 -7 0 -58 -28 -112 -62z"/>
<path d="M3584 9286 c-19 -14 -19 -15 5 -40 28 -30 238 -157 325 -196 108 -49
473 -153 701 -199 414 -83 2025 -324 2044 -305 13 12 -25 26 -139 49 -235 49
-815 166 -1530 310 -866 174 -948 197 -1228 331 -73 35 -138 64 -145 64 -7 0
-22 -6 -33 -14z"/>
<path d="M16593 9248 c-19 -9 -32 -28 -19 -28 18 0 65 24 60 31 -6 11 -13 11
-41 -3z"/>
<path d="M16699 9224 c-19 -23 -62 -43 -119 -55 -47 -10 -117 -4 -205 17 -18
4 -20 0 -21 -50 -2 -89 -49 -163 -144 -228 l-25 -17 48 0 c59 -1 99 19 125 61
20 33 22 39 42 115 l10 42 90 -6 c136 -9 195 20 220 108 9 32 0 38 -21 13z"/>
<path d="M8965 9213 c-164 -11 -457 -62 -469 -82 -3 -4 183 -8 412 -8 501 -1
627 -14 855 -85 54 -17 101 -28 104 -24 16 16 -25 57 -86 86 -172 83 -532 132
-816 113z"/>
<path d="M9005 9028 c-222 -9 -293 -26 -115 -27 142 -1 338 -14 553 -37 82 -9
151 -13 154 -10 12 12 -28 55 -59 64 -44 14 -321 19 -533 10z"/>
<path d="M16535 8938 c-100 -52 -100 -52 -68 -61 47 -14 100 0 138 36 32 31
55 78 38 76 -4 0 -53 -23 -108 -51z"/>
<path d="M13850 8926 c0 -109 -55 -232 -148 -330 l-47 -48 56 5 c132 13 217
102 244 258 10 55 -10 114 -49 144 -48 37 -56 33 -56 -29z"/>
<path d="M13721 8820 c-13 -44 -21 -83 -18 -86 11 -11 87 76 87 99 0 23 -25
67 -39 67 -4 0 -18 -36 -30 -80z"/>
<path d="M7810 8694 c0 -16 77 -109 130 -156 95 -86 261 -173 370 -192 40 -7
50 -15 -103 86 -56 37 -151 112 -211 168 -99 90 -113 100 -148 100 -21 0 -38
-3 -38 -6z"/>
<path d="M13317 8622 c-9 -33 -5 -322 4 -322 17 0 49 80 55 139 10 92 -3 166
-31 185 -22 14 -24 14 -28 -2z"/>
<path d="M9047 8173 c-13 -12 -7 -50 12 -74 36 -46 261 -150 320 -149 42 1
-273 230 -316 230 -5 0 -13 -3 -16 -7z"/>
<path d="M8920 8063 c0 -77 39 -115 286 -276 161 -105 220 -137 255 -137 29 0
22 12 -28 50 -26 19 -148 117 -271 218 -122 100 -227 182 -233 182 -5 0 -9
-17 -9 -37z"/>
<path d="M8797 8043 c-15 -15 -5 -60 33 -147 l40 -91 -87 93 c-70 74 -94 93
-115 92 -24 0 -28 -4 -28 -27 1 -25 7 -44 35 -118 4 -11 -24 11 -62 48 -54 53
-76 68 -94 65 -21 -3 -24 -8 -23 -48 1 -74 90 -206 254 -374 270 -277 439
-419 920 -773 244 -180 302 -217 322 -211 14 5 -34 49 -517 478 -414 368 -587
531 -634 600 -20 27 -21 32 -5 19 404 -332 776 -588 852 -589 7 0 -90 91 -215
202 -254 225 -396 359 -389 366 3 2 131 -78 286 -178 155 -100 296 -188 315
-196 40 -17 59 -1 26 22 -40 29 -507 408 -602 490 -53 46 -136 128 -185 183
-81 92 -109 113 -127 94z m193 -325 c35 -24 80 -81 50 -63 -15 8 -86 61 -104
77 -22 18 23 6 54 -14z"/>
<path d="M12025 5518 c-44 -5 -213 -24 -375 -43 -311 -36 -524 -58 -990 -100
-182 -17 -298 -32 -320 -42 l-35 -15 25 -14 c40 -22 198 -71 316 -98 389 -88
679 -92 1281 -16 175 22 379 43 453 46 377 18 773 -82 935 -236 33 -32 70 -62
82 -69 20 -10 23 -8 33 27 13 48 -7 121 -47 175 -16 21 -69 67 -118 102 -205
147 -442 241 -706 280 -117 17 -399 19 -534 3z"/>
<path d="M12300 5094 c-196 -36 -272 -53 -434 -100 -104 -30 -201 -62 -215
-71 l-25 -16 22 -8 c55 -20 334 -31 597 -24 450 14 520 12 594 -14 35 -12 88
-38 119 -57 70 -45 87 -40 77 23 -4 26 -13 59 -20 73 -32 60 -117 114 -257
162 -89 30 -101 32 -263 34 -93 1 -181 0 -195 -2z"/>
<path d="M13113 3052 c-194 -108 -353 -200 -353 -204 0 -5 7 -11 15 -14 14 -6
601 199 670 233 51 26 85 64 85 96 0 36 -29 87 -50 86 -8 -1 -174 -89 -367
-197z"/>
<path d="M13765 3050 c-119 -65 -264 -115 -675 -235 -357 -103 -534 -181 -732
-321 -100 -72 -279 -248 -331 -326 -35 -53 -72 -137 -64 -144 2 -2 136 61 298
140 441 215 631 296 939 399 239 80 365 138 505 231 99 66 133 97 192 173 52
68 55 76 47 106 -15 52 -50 47 -179 -23z"/>
</g>
</svg>
